<?xml version="1.0" encoding="UTF-8" standalone="no"?>
<!DOCTYPE svg PUBLIC "-//W3C//DTD SVG 1.1//EN" "http://www.w3.org/Graphics/SVG/1.1/DTD/svg11.dtd">
<svg version="1.1" xmlns="http://www.w3.org/2000/svg" xmlns:xlink="http://www.w3.org/1999/xlink" preserveAspectRatio="xMidYMid meet" viewBox="0 0 640 640" width="50" height="50"><defs><path d="M640 313.85C640 482.37 498.16 619.18 323.44 619.18C148.73 619.18 6.89 482.37 6.89 313.85C6.89 145.34 148.73 8.52 323.44 8.52C498.16 8.52 640 145.34 640 313.85Z" id="a96h0OKWLT"></path><path d="M553.36 313.85C553.36 436.45 451.07 535.98 325.08 535.98C199.09 535.98 96.8 436.45 96.8 313.85C96.8 191.25 199.09 91.72 325.08 91.72C451.07 91.72 553.36 191.25 553.36 313.85Z" id="n1KL9D6YE8"></path><path d="M188.46 396.44L406.65 170.73L459.69 222L241.5 447.71L188.46 396.44Z" id="c3aEIsJErz"></path><path d="M240.9 170.73L461.71 393.88L409.27 445.77L188.46 222.61L240.9 170.73Z" id="b1qYsYiHb7"></path></defs><g><g><g><use xlink:href="#a96h0OKWLT" opacity="1" fill="#bdbdbd" fill-opacity="1"></use></g><g><use xlink:href="#n1KL9D6YE8" opacity="1" fill="#fefdfb" fill-opacity="1"></use></g><g><use xlink:href="#c3aEIsJErz" opacity="1" fill="#c5c4c4" fill-opacity="1"></use></g><g><use xlink:href="#b1qYsYiHb7" opacity="1" fill="#c5c5c5" fill-opacity="1"></use></g></g></g></svg>