<?xml version="1.0" encoding="UTF-8" standalone="no"?>
<!DOCTYPE svg PUBLIC "-//W3C//DTD SVG 1.1//EN" "http://www.w3.org/Graphics/SVG/1.1/DTD/svg11.dtd">
<svg version="1.1" xmlns="http://www.w3.org/2000/svg" xmlns:xlink="http://www.w3.org/1999/xlink" preserveAspectRatio="xMidYMid meet" viewBox="0 0 640 640" width="50" height="50"><defs><path d="M640 313.85C640 482.37 498.16 619.18 323.44 619.18C148.73 619.18 6.89 482.37 6.89 313.85C6.89 145.34 148.73 8.52 323.44 8.52C498.16 8.52 640 145.34 640 313.85Z" id="n7PAAThkxB"></path><path d="M553.36 313.85C553.36 436.45 451.07 535.98 325.08 535.98C199.09 535.98 96.8 436.45 96.8 313.85C96.8 191.25 199.09 91.72 325.08 91.72C451.07 91.72 553.36 191.25 553.36 313.85Z" id="n1KL9D6YE8"></path><path d="M168.11 269.59L482.05 269.59L482.05 343.36L168.11 343.36L168.11 269.59Z" id="alipfjhA4"></path><path d="M365.28 156.7L366.85 470.63L293.08 471L291.51 157.07L365.28 156.7Z" id="c1WUkOHND"></path></defs><g><g><g><use xlink:href="#n7PAAThkxB" opacity="1" fill="#fd9f39" fill-opacity="1"></use></g><g><use xlink:href="#n1KL9D6YE8" opacity="1" fill="#fefdfb" fill-opacity="1"></use></g><g><use xlink:href="#alipfjhA4" opacity="1" fill="#ff8d00" fill-opacity="1"></use></g><g><use xlink:href="#c1WUkOHND" opacity="1" fill="#ff8d00" fill-opacity="1"></use></g></g></g></svg>